<?xml version="1.0" encoding="UTF-8" standalone="no"?>
<!DOCTYPE svg PUBLIC "-//W3C//DTD SVG 1.1//EN" "http://www.w3.org/Graphics/SVG/1.1/DTD/svg11.dtd">
<svg width="100%" height="100%" viewBox="0 0 342 84" version="1.1" xmlns="http://www.w3.org/2000/svg" xmlns:xlink="http://www.w3.org/1999/xlink" xml:space="preserve" xmlns:serif="http://www.serif.com/" style="fill-rule:evenodd;clip-rule:evenodd;stroke-linejoin:round;stroke-miterlimit:2;">
    <g id="g5" transform="matrix(1.62236,0,0,1.62236,-106.02,0.000172122)">
        <path id="path7" d="M180.877,0.022C187.844,0.014 194.797,0.006 201.764,0C201.767,3.159 201.77,6.329 201.773,9.487C205.871,9.485 209.945,9.479 214.047,9.476C214.051,13.823 214.056,18.172 214.059,22.525C209.959,22.528 205.884,22.534 201.787,22.536C201.797,31.988 201.806,41.381 201.815,50.833C196.661,51.285 190.351,51.666 186.314,50.372C184.167,49.683 182.35,47.696 181.572,45.633C180.889,43.84 180.864,28.11 180.858,22.558C178.056,22.558 175.197,22.562 172.398,22.567C172.392,18.214 172.389,13.866 172.384,9.518C175.183,9.516 178.043,9.513 180.845,9.51C180.841,6.389 180.76,2.956 180.877,0.022Z" style="fill:white;fill-rule:nonzero;"/>
        <path id="path9" d="M93.147,8.413C105.063,7.525 118.41,11.239 120.933,19.705C121.013,20.085 121.324,21.756 121.324,21.756C121.324,21.756 121.39,45.025 121.396,50.976C114.472,50.985 107.539,50.989 100.619,50.998C100.615,47.081 100.611,43.157 100.608,39.243C94.784,40.961 82.349,43.459 90.282,51.01C85.257,51.014 71.959,51.059 69.614,51.029C66.575,50.353 64.781,46.184 65.513,42.19C66.176,38.557 68.478,36.006 71.211,34.421C77.909,30.53 87.844,30.747 96.505,28.679C97.638,28.407 98.777,28.282 99.626,27.705C100.143,27.352 100.355,26.866 100.486,26.086C101.064,22.572 97.535,21.531 94.237,21.567C93.25,21.576 91.883,21.731 91.007,22.003C90.396,22.186 89.546,22.586 89.069,22.975C88.067,23.78 87.456,24.926 87.459,26.749C80.788,26.755 74.104,26.763 67.434,26.769C67.673,24.986 67.981,23.516 68.507,22.131C69.457,19.627 70.719,17.653 72.376,15.872C76.933,10.97 84.318,9.068 93.147,8.413Z" style="fill:white;fill-rule:nonzero;"/>
        <path id="path11" d="M161.832,8.558C164.122,8.388 166.132,8.977 167.754,9.523C167.758,13.871 167.763,18.22 167.767,22.57C164.048,22.575 160.02,22.345 157.433,23.444C155.871,24.101 154.304,25.637 153.669,27.224C152.853,29.245 153.136,32.532 153.139,35.31C153.144,40.514 153.149,45.736 153.156,50.947C146.086,50.952 139.011,50.96 131.946,50.966C131.933,37.162 131.919,23.363 131.904,9.56C138.364,9.551 145.009,9.546 151.473,9.537C151.476,11.161 151.354,13.215 151.502,14.501C153.602,11.139 156.746,8.935 161.832,8.558Z" style="fill:white;fill-rule:nonzero;"/>
        <g id="g13">
            <g id="g15">
                <path id="path17" d="M273.165,23.111C271.13,18.58 267.708,14.753 263.464,12.446C258.579,9.789 251.661,7.994 243.76,8.585C229.657,9.629 220.001,16.126 217.619,28.99C216.726,33.8 217.306,39.362 218.71,43.223C219.303,44.858 222,50.441 223.241,50.874C225.034,50.777 234.789,50.862 238.636,50.86C238.631,47.404 238.627,43.959 238.624,40.506C250.819,40.495 263.029,40.484 275.228,40.47C276.068,34.189 275.158,27.557 273.165,23.111ZM237.966,29.617C238.11,27.743 238.343,26.414 239.037,25.195C240.121,23.278 242.052,21.953 244.741,21.676C251.364,20.985 254.357,24.088 254.975,29.6C249.307,29.603 243.631,29.612 237.966,29.617Z" style="fill:white;fill-rule:nonzero;"/>
            </g>
        </g>
    </g>
</svg>
