<?xml version="1.0" encoding="UTF-8" standalone="no"?>
<!DOCTYPE svg PUBLIC "-//W3C//DTD SVG 1.1//EN" "http://www.w3.org/Graphics/SVG/1.1/DTD/svg11.dtd">
<svg width="100%" height="100%" viewBox="0 0 1480 384" version="1.1" xmlns="http://www.w3.org/2000/svg" xmlns:xlink="http://www.w3.org/1999/xlink" xml:space="preserve" xmlns:serif="http://www.serif.com/" style="fill-rule:evenodd;clip-rule:evenodd;stroke-linejoin:round;stroke-miterlimit:2;">
    <g transform="matrix(1,0,0,1,-315.167,-312.288)">
        <g transform="matrix(4.16667,0,0,4.16667,0,0)">
            <rect x="213.664" y="74.951" width="6.984" height="36.974" style="fill:white;fill-rule:nonzero;"/>
            <path d="M228.13,74.951L235.115,74.951L235.115,97.07C235.115,98.474 235.253,99.74 235.531,100.866C235.808,101.993 236.259,102.954 236.888,103.749C237.517,104.544 238.347,105.154 239.382,105.577C240.417,106.003 241.693,106.216 243.208,106.216C244.722,106.216 245.998,106.003 247.033,105.577C248.068,105.154 248.898,104.544 249.527,103.749C250.156,102.954 250.609,101.993 250.886,100.866C251.164,99.74 251.302,98.474 251.302,97.07L251.302,74.951L258.286,74.951L258.286,98.289C258.286,100.359 257.953,102.281 257.289,104.054C256.622,105.827 255.644,107.37 254.351,108.683C253.056,109.995 251.476,111.029 249.611,111.786C247.744,112.544 245.609,112.923 243.208,112.923C240.806,112.923 238.671,112.544 236.806,111.786C234.939,111.029 233.359,109.995 232.066,108.683C230.771,107.37 229.792,105.827 229.128,104.054C228.462,102.281 228.13,100.359 228.13,98.289L228.13,74.951Z" style="fill:white;fill-rule:nonzero;"/>
            <path d="M275.693,81.105L263.166,81.105L263.166,74.951L295.207,74.951L295.207,81.105L282.677,81.105L282.677,111.925L275.693,111.925L275.693,81.105Z" style="fill:white;fill-rule:nonzero;"/>
            <path d="M310.394,74.951L317.378,74.951L317.378,105.716L335.617,105.716L335.617,111.925L310.394,111.925L310.394,74.951Z" style="fill:white;fill-rule:nonzero;"/>
            <path d="M355.738,100.174C355.072,100.136 354.425,100.099 353.798,100.062C353.279,100.027 352.734,99.998 352.162,99.98C351.589,99.961 351.099,99.951 350.693,99.951C348.587,99.951 347.109,100.366 346.259,101.199C345.408,102.031 344.984,102.982 344.984,104.054C344.984,105.161 345.38,106.031 346.175,106.659C346.97,107.288 348.144,107.601 349.695,107.601C350.472,107.601 351.22,107.472 351.941,107.214C352.662,106.954 353.298,106.603 353.853,106.159C354.408,105.716 354.859,105.199 355.21,104.609C355.562,104.017 355.738,103.388 355.738,102.724L355.738,100.174ZM355.738,109.486C355.035,110.337 353.964,111.093 352.523,111.759C351.082,112.423 349.474,112.757 347.701,112.757C346.628,112.757 345.566,112.591 344.513,112.257C343.458,111.925 342.498,111.417 341.63,110.734C340.761,110.05 340.058,109.173 339.523,108.101C338.988,107.029 338.72,105.773 338.72,104.331C338.72,102.853 338.998,101.531 339.55,100.366C340.105,99.203 340.882,98.224 341.878,97.429C342.876,96.635 344.078,96.035 345.482,95.629C346.886,95.222 348.439,95.017 350.138,95.017C350.656,95.017 351.228,95.027 351.857,95.047C352.486,95.064 353.095,95.093 353.687,95.129C354.351,95.166 355.035,95.203 355.738,95.24L355.738,94.631C355.738,93.338 355.22,92.322 354.185,91.582C353.15,90.843 351.802,90.472 350.138,90.472C348.291,90.472 346.812,90.713 345.705,91.193C344.595,91.674 343.617,92.191 342.767,92.746L339.773,88.31C340.291,87.941 340.882,87.562 341.546,87.174C342.212,86.787 342.988,86.435 343.875,86.121C344.761,85.808 345.787,85.549 346.951,85.345C348.115,85.142 349.474,85.041 351.027,85.041C352.689,85.041 354.195,85.271 355.544,85.734C356.892,86.195 358.046,86.842 359.009,87.674C359.968,88.506 360.708,89.502 361.226,90.668C361.744,91.832 362.001,93.097 362.001,94.465L362.001,111.925L355.904,111.925L355.738,109.486Z" style="fill:white;fill-rule:nonzero;"/>
            <path d="M364.607,85.927L372.146,85.927L379.13,104.552L386.115,85.927L393.265,85.927L382.291,111.925L375.638,111.925L364.607,85.927Z" style="fill:white;fill-rule:nonzero;"/>
            <path d="M411.615,100.174C410.949,100.136 410.302,100.099 409.675,100.062C409.156,100.027 408.611,99.998 408.039,99.98C407.466,99.961 406.976,99.951 406.57,99.951C404.464,99.951 402.986,100.366 402.136,101.199C401.285,102.031 400.861,102.982 400.861,104.054C400.861,105.161 401.257,106.031 402.052,106.659C402.847,107.288 404.021,107.601 405.572,107.601C406.349,107.601 407.097,107.472 407.818,107.214C408.539,106.954 409.175,106.603 409.73,106.159C410.285,105.716 410.736,105.199 411.087,104.609C411.439,104.017 411.615,103.388 411.615,102.724L411.615,100.174ZM411.615,109.486C410.912,110.337 409.841,111.093 408.4,111.759C406.958,112.423 405.351,112.757 403.578,112.757C402.505,112.757 401.443,112.591 400.39,112.257C399.335,111.925 398.375,111.417 397.507,110.734C396.638,110.05 395.935,109.173 395.4,108.101C394.865,107.029 394.597,105.773 394.597,104.331C394.597,102.853 394.875,101.531 395.427,100.366C395.982,99.203 396.759,98.224 397.755,97.429C398.753,96.635 399.955,96.035 401.359,95.629C402.763,95.222 404.316,95.017 406.015,95.017C406.533,95.017 407.105,95.027 407.734,95.047C408.363,95.064 408.972,95.093 409.564,95.129C410.228,95.166 410.912,95.203 411.615,95.24L411.615,94.631C411.615,93.338 411.097,92.322 410.062,91.582C409.027,90.843 407.679,90.472 406.015,90.472C404.167,90.472 402.689,90.713 401.582,91.193C400.472,91.674 399.494,92.191 398.644,92.746L395.65,88.31C396.167,87.941 396.759,87.562 397.423,87.174C398.089,86.787 398.865,86.435 399.751,86.121C400.638,85.808 401.664,85.549 402.828,85.345C403.992,85.142 405.351,85.041 406.904,85.041C408.566,85.041 410.072,85.271 411.421,85.734C412.769,86.195 413.923,86.842 414.886,87.674C415.845,88.506 416.585,89.502 417.103,90.668C417.621,91.832 417.878,93.097 417.878,94.465L417.878,111.925L411.781,111.925L411.615,109.486Z" style="fill:white;fill-rule:nonzero;"/>
            <rect x="424.197" y="74.951" width="6.541" height="36.974" style="fill:white;fill-rule:nonzero;"/>
            <rect x="178.519" y="74.949" width="5.291" height="91.974" style="fill:white;fill-rule:nonzero;"/>
            <g transform="matrix(0.24,0,0,0.24,0,0)">
                <path d="M630.321,537.871C630.442,624.825 560.058,695.4 473.108,695.512C386.163,695.642 315.587,625.25 315.467,538.317L315.167,312.571L630.021,312.571L630.321,537.871ZM535.642,511.221L504.246,511.221C504.213,511.221 504.187,511.204 504.171,511.221L472.892,556.929C472.85,556.979 472.775,556.979 472.738,556.929L441.329,511.221C441.317,511.204 441.283,511.221 441.258,511.221L409.867,511.221C409.817,511.221 409.779,511.179 409.779,511.221L391.45,632.475C391.442,632.542 391.492,632.475 391.55,632.475L421.262,632.475C421.312,632.475 421.354,632.525 421.358,632.475L433.804,550.283C433.812,550.2 433.917,550.158 433.975,550.233L470.304,601.692C470.846,602.437 471.758,602.917 472.85,602.917C474.208,602.917 474.983,602.204 475.65,601.388L511.504,550.292C511.563,550.233 511.667,550.258 511.683,550.338L514.5,567.633L524.471,632.475C524.479,632.525 524.517,632.475 524.567,632.475L554.288,632.475C554.342,632.475 554.392,632.542 554.383,632.475L535.742,511.221C535.733,511.179 535.688,511.221 535.642,511.221ZM496.246,449.779C496.229,449.8 496.229,449.825 496.229,449.85L501.421,483.642C501.429,483.687 501.471,483.642 501.521,483.642L531.233,483.642C531.296,483.642 531.346,483.696 531.329,483.642L527.258,457.092L527.854,456.2L558.846,408.642L558.846,361.246L531.567,361.246L521.45,376.829L494.938,376.829L484.804,361.246L460.496,361.246L450.325,376.829L423.925,376.829L413.733,361.246L386.479,361.246L386.479,408.854L418.096,457.046C418.113,457.063 418.121,457.083 418.113,457.108L414.1,483.642C414.092,483.696 414.125,483.642 414.196,483.642L443.913,483.642C443.958,483.642 443.992,483.687 444.008,483.642L449.129,449.746C449.133,449.721 449.129,449.696 449.121,449.679L421.221,406.804L524.133,406.804L496.246,449.779Z" style="fill:white;fill-rule:nonzero;"/>
            </g>
            <path d="M213.767,129.191L216.55,129.191L216.55,141.45L223.818,141.45L223.818,143.925L213.767,143.925L213.767,129.191Z" style="fill:white;fill-rule:nonzero;"/>
            <path d="M232.919,137.652C232.919,137.386 232.869,137.12 232.765,136.857C232.662,136.591 232.511,136.351 232.312,136.138C232.113,135.925 231.859,135.747 231.55,135.609C231.242,135.468 230.888,135.398 230.49,135.398C230.062,135.398 229.683,135.468 229.353,135.609C229.021,135.747 228.746,135.925 228.523,136.138C228.302,136.351 228.134,136.591 228.015,136.857C227.898,137.12 227.839,137.386 227.839,137.652L232.919,137.652ZM235.46,142.423C235.416,142.468 235.294,142.589 235.095,142.788C234.898,142.986 234.609,143.197 234.234,143.417C233.859,143.638 233.38,143.837 232.798,144.013C232.216,144.191 231.521,144.279 230.71,144.279C229.886,144.279 229.134,144.138 228.458,143.859C227.781,143.579 227.203,143.193 226.724,142.699C226.246,142.206 225.876,141.613 225.619,140.921C225.361,140.228 225.232,139.462 225.232,138.622C225.232,137.859 225.361,137.148 225.619,136.491C225.876,135.837 226.238,135.265 226.701,134.779C227.166,134.294 227.718,133.911 228.359,133.63C229,133.351 229.708,133.21 230.49,133.21C231.433,133.21 232.232,133.384 232.886,133.73C233.542,134.075 234.068,134.529 234.466,135.089C234.865,135.648 235.152,136.283 235.328,136.99C235.505,137.695 235.593,138.417 235.593,139.154L235.593,139.529L227.861,139.529C227.861,139.911 227.945,140.257 228.115,140.568C228.285,140.876 228.505,141.142 228.779,141.363C229.05,141.583 229.359,141.753 229.707,141.87C230.052,141.99 230.394,142.048 230.732,142.048C231.234,142.048 231.671,141.999 232.046,141.904C232.423,141.808 232.744,141.699 233.007,141.572C233.273,141.447 233.49,141.316 233.66,141.175C233.83,141.034 233.958,140.921 234.046,140.833L235.46,142.423Z" style="fill:white;fill-rule:nonzero;"/>
            <path d="M242.396,129.191L244.982,129.191L249.068,136.15L253.087,129.191L255.673,129.191L256.38,143.925L253.664,143.925L253.177,133.72L249.642,139.728L248.339,139.728L244.783,133.874L244.296,143.925L241.689,143.925L242.396,129.191Z" style="fill:white;fill-rule:nonzero;"/>
            <path d="M265.15,139.241C264.884,139.228 264.626,139.212 264.376,139.199C264.169,139.183 263.953,139.171 263.724,139.165C263.496,139.158 263.302,139.154 263.14,139.154C262.3,139.154 261.709,139.32 261.372,139.65C261.032,139.982 260.864,140.361 260.864,140.788C260.864,141.23 261.023,141.575 261.338,141.827C261.656,142.077 262.122,142.202 262.742,142.202C263.052,142.202 263.349,142.15 263.636,142.048C263.923,141.945 264.177,141.804 264.398,141.628C264.621,141.45 264.8,141.245 264.941,141.009C265.08,140.773 265.15,140.523 265.15,140.257L265.15,139.241ZM265.15,142.952C264.871,143.292 264.443,143.593 263.869,143.859C263.294,144.124 262.654,144.257 261.946,144.257C261.519,144.257 261.096,144.191 260.677,144.058C260.256,143.925 259.875,143.722 259.527,143.45C259.181,143.177 258.902,142.827 258.689,142.402C258.474,141.974 258.368,141.474 258.368,140.898C258.368,140.31 258.478,139.783 258.699,139.32C258.919,138.855 259.23,138.466 259.626,138.148C260.025,137.831 260.502,137.593 261.064,137.431C261.622,137.269 262.242,137.187 262.919,137.187C263.125,137.187 263.353,137.191 263.603,137.199C263.853,137.206 264.097,137.216 264.333,137.232C264.597,137.247 264.871,137.261 265.15,137.277L265.15,137.033C265.15,136.517 264.943,136.113 264.531,135.818C264.119,135.523 263.582,135.376 262.919,135.376C262.183,135.376 261.592,135.472 261.152,135.663C260.709,135.855 260.32,136.06 259.98,136.283L258.789,134.515C258.993,134.366 259.23,134.216 259.496,134.062C259.759,133.908 260.07,133.767 260.423,133.642C260.777,133.517 261.185,133.413 261.648,133.333C262.113,133.251 262.654,133.21 263.273,133.21C263.935,133.21 264.535,133.304 265.072,133.488C265.611,133.671 266.07,133.929 266.453,134.261C266.835,134.591 267.13,134.99 267.337,135.452C267.542,135.917 267.646,136.421 267.646,136.966L267.646,143.925L265.216,143.925L265.15,142.952Z" style="fill:white;fill-rule:nonzero;"/>
            <path d="M270.164,133.564L272.66,133.564L272.726,134.736C272.859,134.589 273.017,134.433 273.201,134.271C273.384,134.109 273.607,133.958 273.865,133.818C274.121,133.679 274.412,133.564 274.736,133.476C275.06,133.388 275.429,133.343 275.841,133.343C277.136,133.343 278.123,133.73 278.8,134.503C279.478,135.277 279.818,136.318 279.818,137.63L279.818,143.925L277.21,143.925L277.21,137.652C277.21,136.99 277.031,136.478 276.669,136.116C276.308,135.755 275.841,135.575 275.267,135.575C274.914,135.575 274.582,135.646 274.273,135.784C273.962,135.925 273.699,136.12 273.478,136.37C273.255,136.62 273.083,136.911 272.958,137.243C272.833,137.574 272.771,137.931 272.771,138.314L272.771,143.925L270.164,143.925L270.164,133.564Z" style="fill:white;fill-rule:nonzero;"/>
            <path d="M283.396,140.964C283.72,141.288 284.128,141.558 284.623,141.771C285.115,141.986 285.679,142.091 286.312,142.091C286.871,142.091 287.32,142.019 287.66,141.87C287.998,141.724 288.167,141.48 288.167,141.142C288.167,140.995 288.138,140.859 288.08,140.734C288.021,140.609 287.894,140.486 287.703,140.368C287.511,140.251 287.248,140.132 286.908,140.015C286.57,139.898 286.113,139.773 285.539,139.64C285.185,139.552 284.816,139.433 284.435,139.286C284.05,139.14 283.695,138.937 283.363,138.679C283.031,138.421 282.759,138.113 282.544,137.751C282.332,137.39 282.224,136.958 282.224,136.458C282.224,135.943 282.349,135.484 282.601,135.077C282.851,134.673 283.179,134.333 283.583,134.062C283.988,133.788 284.445,133.579 284.953,133.433C285.46,133.284 285.972,133.21 286.488,133.21C287.402,133.21 288.179,133.308 288.82,133.497C289.46,133.691 290.037,133.978 290.554,134.361L289.207,136.193C288.925,135.988 288.558,135.8 288.101,135.63C287.644,135.46 287.107,135.376 286.488,135.376C285.871,135.376 285.439,135.468 285.197,135.652C284.953,135.837 284.832,136.06 284.832,136.325C284.832,136.65 285.035,136.904 285.439,137.087C285.843,137.273 286.474,137.468 287.328,137.673C287.859,137.792 288.333,137.939 288.753,138.115C289.173,138.292 289.533,138.513 289.835,138.779C290.136,139.042 290.369,139.357 290.531,139.716C290.693,140.077 290.775,140.509 290.775,141.009C290.775,141.509 290.656,141.962 290.421,142.368C290.185,142.773 289.865,143.115 289.46,143.396C289.054,143.675 288.583,143.892 288.046,144.046C287.507,144.2 286.937,144.279 286.333,144.279C285.363,144.279 284.486,144.142 283.705,143.87C282.925,143.597 282.298,143.197 281.828,142.665L283.396,140.964Z" style="fill:white;fill-rule:nonzero;"/>
            <path d="M213.656,151.105L216.439,151.105L216.439,159.919C216.439,160.478 216.496,160.984 216.605,161.433C216.716,161.882 216.896,162.265 217.146,162.581C217.396,162.898 217.728,163.14 218.14,163.31C218.552,163.48 219.06,163.564 219.666,163.564C220.269,163.564 220.777,163.48 221.189,163.31C221.601,163.14 221.933,162.898 222.183,162.581C222.433,162.265 222.615,161.882 222.724,161.433C222.835,160.984 222.89,160.478 222.89,159.919L222.89,151.105L225.673,151.105L225.673,160.406C225.673,161.23 225.541,161.995 225.275,162.702C225.011,163.409 224.621,164.025 224.105,164.546C223.589,165.07 222.96,165.482 222.216,165.784C221.472,166.085 220.623,166.238 219.666,166.238C218.707,166.238 217.857,166.085 217.113,165.784C216.369,165.482 215.74,165.07 215.224,164.546C214.708,164.025 214.318,163.409 214.054,162.702C213.789,161.995 213.656,161.23 213.656,160.406L213.656,151.105Z" style="fill:white;fill-rule:nonzero;"/>
            <path d="M228.39,155.478L230.886,155.478L230.953,156.65C231.085,156.503 231.244,156.347 231.427,156.185C231.611,156.023 231.833,155.872 232.091,155.732C232.347,155.593 232.638,155.478 232.962,155.39C233.287,155.302 233.656,155.257 234.068,155.257C235.363,155.257 236.349,155.644 237.027,156.417C237.705,157.191 238.044,158.232 238.044,159.544L238.044,165.839L235.437,165.839L235.437,159.566C235.437,158.904 235.257,158.392 234.896,158.031C234.535,157.669 234.068,157.49 233.494,157.49C233.14,157.49 232.808,157.56 232.5,157.699C232.189,157.839 231.925,158.034 231.705,158.284C231.482,158.534 231.31,158.825 231.185,159.158C231.06,159.488 230.998,159.845 230.998,160.228L230.998,165.839L228.39,165.839L228.39,155.478Z" style="fill:white;fill-rule:nonzero;"/>
            <path d="M240.673,155.478L243.279,155.478L243.279,165.839L240.673,165.839L240.673,155.478ZM240.583,151.105L243.367,151.105L243.367,153.843L240.583,153.843L240.583,151.105Z" style="fill:white;fill-rule:nonzero;"/>
            <path d="M244.783,155.478L247.787,155.478L250.57,162.902L253.353,155.478L256.203,155.478L251.83,165.839L249.177,165.839L244.783,155.478Z" style="fill:white;fill-rule:nonzero;"/>
            <path d="M264.353,159.566C264.353,159.3 264.302,159.034 264.199,158.771C264.095,158.505 263.945,158.265 263.746,158.052C263.546,157.839 263.292,157.661 262.984,157.523C262.675,157.382 262.322,157.312 261.923,157.312C261.496,157.312 261.117,157.382 260.786,157.523C260.454,157.661 260.178,157.839 259.957,158.052C259.736,158.265 259.568,158.505 259.449,158.771C259.332,159.034 259.273,159.3 259.273,159.566L264.353,159.566ZM266.894,164.337C266.849,164.382 266.728,164.503 266.529,164.702C266.332,164.9 266.042,165.111 265.667,165.331C265.292,165.552 264.814,165.751 264.232,165.927C263.65,166.105 262.955,166.193 262.144,166.193C261.32,166.193 260.568,166.052 259.892,165.773C259.213,165.493 258.635,165.107 258.157,164.613C257.678,164.12 257.31,163.527 257.052,162.835C256.794,162.142 256.665,161.376 256.665,160.536C256.665,159.773 256.794,159.062 257.052,158.406C257.31,157.751 257.67,157.179 258.134,156.693C258.599,156.208 259.152,155.825 259.792,155.544C260.433,155.265 261.142,155.124 261.923,155.124C262.867,155.124 263.666,155.298 264.32,155.644C264.976,155.99 265.501,156.443 265.9,157.003C266.298,157.562 266.585,158.197 266.761,158.904C266.939,159.609 267.027,160.331 267.027,161.068L267.027,161.443L259.294,161.443C259.294,161.825 259.377,162.171 259.548,162.482C259.717,162.79 259.939,163.056 260.212,163.277C260.484,163.497 260.792,163.667 261.14,163.784C261.486,163.904 261.828,163.962 262.166,163.962C262.667,163.962 263.105,163.913 263.48,163.818C263.857,163.722 264.177,163.613 264.441,163.486C264.707,163.361 264.923,163.23 265.093,163.089C265.263,162.949 265.392,162.835 265.48,162.747L266.894,164.337Z" style="fill:white;fill-rule:nonzero;"/>
            <path d="M269.037,155.478L271.533,155.478L271.599,156.783C271.716,156.634 271.869,156.472 272.052,156.296C272.236,156.118 272.453,155.956 272.705,155.81C272.955,155.663 273.246,155.538 273.576,155.435C273.908,155.331 274.287,155.281 274.714,155.281C274.964,155.281 275.189,155.294 275.388,155.324C275.587,155.353 275.789,155.406 275.996,155.478L275.464,157.931C275.289,157.857 275.107,157.806 274.923,157.777C274.74,157.747 274.523,157.732 274.273,157.732C273.919,157.732 273.58,157.79 273.255,157.909C272.931,158.027 272.652,158.197 272.417,158.417C272.181,158.638 271.994,158.904 271.853,159.212C271.712,159.521 271.644,159.866 271.644,160.249L271.644,165.839L269.037,165.839L269.037,155.478Z" style="fill:white;fill-rule:nonzero;"/>
            <path d="M278.005,162.878C278.33,163.202 278.738,163.472 279.232,163.685C279.724,163.9 280.289,164.005 280.921,164.005C281.48,164.005 281.929,163.933 282.269,163.784C282.607,163.638 282.777,163.394 282.777,163.056C282.777,162.909 282.748,162.773 282.689,162.648C282.63,162.523 282.503,162.4 282.312,162.283C282.121,162.165 281.857,162.046 281.517,161.929C281.179,161.812 280.722,161.687 280.148,161.554C279.794,161.466 279.425,161.347 279.044,161.2C278.66,161.054 278.304,160.851 277.972,160.593C277.64,160.335 277.369,160.027 277.154,159.665C276.941,159.304 276.833,158.872 276.833,158.372C276.833,157.857 276.958,157.398 277.21,156.991C277.46,156.587 277.789,156.247 278.193,155.976C278.597,155.702 279.054,155.493 279.562,155.347C280.07,155.199 280.582,155.124 281.097,155.124C282.011,155.124 282.789,155.222 283.429,155.411C284.07,155.605 284.646,155.892 285.164,156.275L283.816,158.107C283.535,157.902 283.167,157.714 282.71,157.544C282.253,157.374 281.716,157.29 281.097,157.29C280.48,157.29 280.048,157.382 279.806,157.566C279.562,157.751 279.441,157.974 279.441,158.24C279.441,158.564 279.644,158.818 280.048,159.001C280.453,159.187 281.083,159.382 281.937,159.587C282.468,159.706 282.943,159.853 283.363,160.029C283.783,160.206 284.142,160.427 284.445,160.693C284.746,160.956 284.978,161.271 285.14,161.63C285.302,161.991 285.384,162.423 285.384,162.923C285.384,163.423 285.265,163.876 285.031,164.283C284.794,164.687 284.474,165.029 284.07,165.31C283.664,165.589 283.193,165.806 282.656,165.96C282.117,166.115 281.546,166.193 280.943,166.193C279.972,166.193 279.095,166.056 278.314,165.784C277.535,165.511 276.908,165.111 276.437,164.579L278.005,162.878Z" style="fill:white;fill-rule:nonzero;"/>
            <path d="M287.617,155.478L290.222,155.478L290.222,165.839L287.617,165.839L287.617,155.478ZM287.527,151.105L290.31,151.105L290.31,153.843L287.527,153.843L287.527,151.105Z" style="fill:white;fill-rule:nonzero;"/>
            <path d="M293.777,157.599L292.011,157.599L292.011,155.478L293.777,155.478L293.777,152.12L296.384,152.12L296.384,155.478L299.167,155.478L299.167,157.599L296.384,157.599L296.384,162.128C296.384,162.718 296.484,163.169 296.683,163.486C296.882,163.804 297.203,163.962 297.644,163.962C298.056,163.962 298.384,163.904 298.626,163.784C298.869,163.667 299.101,163.527 299.322,163.365L300.427,164.978C299.912,165.406 299.404,165.71 298.902,165.894C298.402,166.077 297.843,166.171 297.224,166.171C296.591,166.171 296.052,166.077 295.611,165.894C295.169,165.71 294.812,165.449 294.541,165.111C294.267,164.771 294.072,164.363 293.955,163.884C293.835,163.406 293.777,162.878 293.777,162.304L293.777,157.599Z" style="fill:white;fill-rule:nonzero;"/>
            <path d="M306.105,150.773L308.888,150.773L307.142,153.909L305.044,153.909L306.105,150.773ZM308.556,159.566C308.556,159.3 308.505,159.034 308.402,158.771C308.298,158.505 308.148,158.265 307.949,158.052C307.75,157.839 307.496,157.661 307.187,157.523C306.878,157.382 306.525,157.312 306.126,157.312C305.699,157.312 305.32,157.382 304.99,157.523C304.658,157.661 304.382,157.839 304.16,158.052C303.939,158.265 303.771,158.505 303.652,158.771C303.535,159.034 303.476,159.3 303.476,159.566L308.556,159.566ZM311.097,164.337C311.052,164.382 310.931,164.503 310.732,164.702C310.535,164.9 310.246,165.111 309.871,165.331C309.496,165.552 309.017,165.751 308.435,165.927C307.853,166.105 307.158,166.193 306.347,166.193C305.523,166.193 304.771,166.052 304.095,165.773C303.417,165.493 302.839,165.107 302.361,164.613C301.882,164.12 301.513,163.527 301.255,162.835C300.998,162.142 300.869,161.376 300.869,160.536C300.869,159.773 300.998,159.062 301.255,158.406C301.513,157.751 301.875,157.179 302.337,156.693C302.802,156.208 303.355,155.825 303.996,155.544C304.636,155.265 305.345,155.124 306.126,155.124C307.07,155.124 307.869,155.298 308.523,155.644C309.179,155.99 309.705,156.443 310.103,157.003C310.501,157.562 310.789,158.197 310.964,158.904C311.142,159.609 311.23,160.331 311.23,161.068L311.23,161.443L303.498,161.443C303.498,161.825 303.582,162.171 303.751,162.482C303.921,162.79 304.142,163.056 304.416,163.277C304.687,163.497 304.996,163.667 305.343,163.784C305.689,163.904 306.031,163.962 306.369,163.962C306.871,163.962 307.308,163.913 307.683,163.818C308.06,163.722 308.38,163.613 308.644,163.486C308.91,163.361 309.126,163.23 309.296,163.089C309.466,162.949 309.595,162.835 309.683,162.747L311.097,164.337Z" style="fill:white;fill-rule:nonzero;"/>
        </g>
    </g>
</svg>
