<?xml version="1.0" encoding="UTF-8" standalone="no"?>
<!DOCTYPE svg PUBLIC "-//W3C//DTD SVG 1.1//EN" "http://www.w3.org/Graphics/SVG/1.1/DTD/svg11.dtd">
<svg width="100%" height="100%" viewBox="0 0 152 151" version="1.1" xmlns="http://www.w3.org/2000/svg" xmlns:xlink="http://www.w3.org/1999/xlink" xml:space="preserve" xmlns:serif="http://www.serif.com/" style="fill-rule:evenodd;clip-rule:evenodd;stroke-linejoin:round;stroke-miterlimit:2;">
    <path d="M82.8,69.2L82.8,67.6C77.7,67.6 73.4,65.7 73.4,57.2L73.4,35.4L99.5,35.4L99.5,57.5C99.5,66.2 94.8,67.5 90.1,67.5L90.1,69.2L144.4,69.2L147.4,47.3L146.2,47.3C143.3,55.6 135.1,67 122.6,67L111.5,67L111.5,35.3C124.1,35.5 127.7,42.5 129.8,50.8L131.2,50.8L127,17.5L125.8,17.5C125.4,25.4 124.6,33 111.5,33L111.5,2.3L119.9,2.3C132.4,2.3 140.6,13.7 143.5,22L144.7,22L141.7,0.1L90.2,0.1L90.2,1.8C94.9,1.8 99.6,3.1 99.6,11.8L99.6,33.2L73.5,33.2L73.5,12C73.5,3.5 77.8,1.6 82.9,1.6L82.9,0L6.7,0L3.7,21.9L5,21.9C7.9,13.6 18.7,1.6 28.2,1.6L28.2,57.1C28.2,64.8 22.1,67.5 17,67.5L17,69.1L40.1,69.1L40.1,1.6C55.7,1.6 61.2,9.2 61.5,19.8L61.5,57.1C61.5,64.8 55.4,67.5 50.3,67.5L50.3,69.1L82.8,69.1L82.8,69.2Z" style="fill:white;fill-rule:nonzero;"/>
    <path d="M12.3,81.4L0.1,81.4L0.1,83C5,83 11.2,85.7 11.2,93.4L11.2,138.5C11.2,146.2 5.1,148.9 0,148.9L0,150.5L25,150.5L25,148.9C21.1,148.9 13.9,147 13.9,138.5L13.9,96L35.7,143.6L36.7,143.6L58.2,93.4L58.2,138.3C58.2,147 51.4,148.8 47.1,148.8L47.1,150.5L103.3,150.5L106.3,128.6L105.1,128.6C102.2,136.9 94,148.3 81.5,148.3L70.5,148.3L70.5,116.6C83,116.8 86.7,123.8 88.7,132.1L90.1,132.1L86,98.8L84.8,98.8C84.4,106.7 83.6,114.2 70.6,114.3L70.6,83.6L77.1,83.6C92.1,83.6 95.8,95.5 96.6,103.4L97.8,103.4C98.8,94.5 102.6,83.3 116.1,83.3L116.1,150.6L139.3,150.6L139.3,149C134.2,149 128.1,146.3 128.1,138.6L128.1,83C139.9,83 148.4,97.9 150.1,103.4L151.3,103.4L148.8,81.4L68.8,81.4C63.8,81.2 59.2,84.2 57.4,88.9L41.3,126.8L23.5,87.5C22.1,84.4 17.9,81.4 12.3,81.4Z" style="fill:white;fill-rule:nonzero;"/>
</svg>
